HIERARCHY
ROOT Hips
{
  OFFSET 1.44925e-005 102.336 -0.101585
  CHANNELS 6 Xposition Yposition Zposition Zrotation Xrotation Yrotation
  JOINT LeftUpLeg
  {
    OFFSET 8.9458 -8.66707 0.101652
    CHANNELS 3 Zrotation Xrotation Yrotation
    JOINT LeftLeg
    {
      OFFSET 0 -44.4227 1.3727
      CHANNELS 3 Zrotation Xrotation Yrotation
      JOINT LeftFoot
      {
        OFFSET -0.253549 -42.0924 -1.46059
        CHANNELS 3 Zrotation Xrotation Yrotation
        JOINT LeftToes
        {
          OFFSET -0.04 -4.41509 8.4991
          CHANNELS 3 Zrotation Xrotation Yrotation
          End Site
          {
            OFFSET 0.08 -0.047448 9.77979
          }
        }
      }
    }
  }
  JOINT Spine
  {
    OFFSET 0 11.8905 0
    CHANNELS 3 Zrotation Xrotation Yrotation
    JOINT Spine1
    {
      OFFSET 0 25.6574 0.127663
      CHANNELS 3 Zrotation Xrotation Yrotation
      JOINT RightShoulder
      {
        OFFSET -8.99 -0.362252 -0.22
        CHANNELS 3 Zrotation Xrotation Yrotation
        JOINT RightArm
        {
          OFFSET -10.2827 -0.00338 0.322123
          CHANNELS 3 Zrotation Xrotation Yrotation
          JOINT RightForeArm
          {
            OFFSET -26.364 0.099144 -1.42434
            CHANNELS 3 Zrotation Xrotation Yrotation
            JOINT RightHand
            {
              OFFSET -22.0324 0.085362 1.02216
              CHANNELS 3 Zrotation Xrotation Yrotation
              End Site
              {
                OFFSET -13.3284 -0.6 1.50291
              }
            }
          }
        }
      }
      JOINT LeftShoulder1
      {
        OFFSET 8.99 -0.362252 -0.22
        CHANNELS 3 Zrotation Xrotation Yrotation
        JOINT LeftArm
        {
          OFFSET 10.2827 -0.00337999 0.322123
          CHANNELS 3 Zrotation Xrotation Yrotation
          JOINT LeftForeArm
          {
            OFFSET 26.2597 0.099144 -1.42434
            CHANNELS 3 Zrotation Xrotation Yrotation
            JOINT LeftHand
            {
              OFFSET 22.0902 0.085362 1.02216
              CHANNELS 3 Zrotation Xrotation Yrotation
              End Site
              {
                OFFSET 13.419 -0.6 1.50291
              }
            }
          }
        }
      }
      JOINT Head
      {
        OFFSET 0 8.73416 0.011341
        CHANNELS 3 Zrotation Xrotation Yrotation
        End Site
        {
          OFFSET -0.29 12.7742 2.51395
        }
      }
    }
  }
  JOINT RightUpLeg
  {
    OFFSET -8.9458 -8.66707 0.101652
    CHANNELS 3 Zrotation Xrotation Yrotation
    JOINT RightLeg
    {
      OFFSET 0 -44.4227 1.3727
      CHANNELS 3 Zrotation Xrotation Yrotation
      JOINT RightFoot
      {
        OFFSET 0.253549 -42.0924 -1.46059
        CHANNELS 3 Zrotation Xrotation Yrotation
        JOINT RightToes
        {
          OFFSET 0.04 -4.41509 8.4991
          CHANNELS 3 Zrotation Xrotation Yrotation
          End Site
          {
            OFFSET -0.08 -0.137448 9.77979
          }
        }
      }
    }
  }
}
MOTION
Frames:	12
Frame Time:	0.0333333
194.635 102.927 4.65776 -5.35379 -0.510281 -92.5709 -2.48995 3.63604 2.49635 -1.03613 7.87745 22.3852 -0.957093 -11.3932 0.0230878 -1.37048e-009 8.75213e-006 -1.47689e-008 1.60609 8.04173 0.494745 -3.28236 -0.156459 1.20811 36.8227 1.72754 0.0312573 40.586 -9.89188 2.08197 4.8844 27.7794 15.6682 -9.34516 9.46265 0.470126 -44.5023 3.57167 -3.47537 -27.5523 -8.78256 5.4499 -0.637438 28.0124 -21.2304 5.82328 9.61819 -0.917488 1.45924 -2.19999 -2.95626 -3.38029 4.29513 -5.33177 -1.2309 10.9473 -7.42205 6.31426 -13.6483 0.127033 0.0462048 0.000530889 0.662642 
194.58 102.916 4.67803 -5.32583 -0.522398 -92.5997 -2.5241 3.64092 2.48469 -1.04353 7.88139 22.4253 -0.777209 -11.4311 0.0230909 -1.37048e-009 8.75213e-006 -1.47689e-008 1.61751 7.97961 0.480444 -3.33593 -0.123453 1.20851 36.8216 1.72754 0.0326558 40.6464 -10.2298 2.19346 4.99598 27.9901 15.4502 -9.37414 9.44767 0.656936 -44.4483 3.56296 -3.46647 -27.5467 -9.05038 5.50435 -0.807221 28.3106 -20.8796 5.82328 9.61819 -0.917488 1.32185 -2.90931 -3.61102 -3.41156 4.26033 -5.34508 -1.23911 11.0218 -7.37678 6.32081 -13.7229 0.128345 0.0462048 0.000530889 0.662642 
194.459 102.901 4.7114 -5.31814 -0.524471 -92.6467 -2.55342 3.69869 2.50302 -1.05781 7.91442 22.4591 -0.647456 -11.5227 0.0230983 -1.37048e-009 8.75213e-006 -1.47689e-008 1.5341 7.76502 0.501392 -3.21544 0.184034 1.20629 36.6183 1.72754 0.0397377 40.8512 -10.6862 2.32839 5.07211 28.2908 15.2384 -9.38885 9.44514 0.681308 -44.5969 3.57294 -3.46368 -27.367 -9.43401 5.55812 -1.14708 28.7551 -20.2745 5.82328 9.61819 -0.917488 1.24935 -3.1127 -3.48196 -3.46927 4.28853 -5.40825 -1.21042 11.101 -7.25014 6.30753 -13.8425 0.133503 0.0462048 0.000530889 0.662642 
194.319 102.889 4.74438 -5.35568 -0.514738 -92.6679 -2.56735 3.80509 2.53743 -1.06511 7.96815 22.4578 -0.6768 -11.6311 0.0231073 -1.37048e-009 8.75213e-006 -1.47689e-008 1.4346 7.65189 0.515783 -3.04167 0.441081 1.18677 36.3969 1.72776 0.0473009 41.0056 -10.9397 2.29011 5.0383 28.5605 15.1788 -9.42138 9.46121 0.437296 -44.7984 3.59177 -3.47018 -27.1301 -9.89953 5.71386 -1.45461 29.2617 -19.7124 5.82328 9.61819 -0.917488 1.25779 -2.57178 -2.43555 -3.52474 4.41563 -5.49836 -1.15877 11.1141 -7.11842 6.31922 -13.9302 0.138524 0.0462048 0.000530889 0.662642 
194.2 102.881 4.77012 -5.38343 -0.513344 -92.6486 -2.58767 3.88879 2.54376 -1.05882 8.01274 22.4369 -0.732981 -11.7185 0.0231146 -1.37048e-009 8.75213e-006 -1.47689e-008 1.51037 7.89518 0.462158 -3.19001 0.174819 1.15793 36.5295 1.72922 0.0371345 40.8579 -10.9693 2.00686 5.01352 28.7749 15.141 -9.44801 9.47907 0.173686 -44.6881 3.58041 -3.46456 -27.074 -10.4771 6.07675 -1.61415 29.8937 -19.2974 5.82328 9.61819 -0.917488 1.22642 -2.47181 -1.94177 -3.55702 4.54401 -5.5544 -1.1374 11.0799 -7.07013 6.35086 -13.976 0.14261 0.0462048 0.000530889 0.662642 
194.098 102.877 4.7823 -5.34271 -0.52898 -92.6323 -2.61961 3.91202 2.51878 -1.05184 8.00633 22.4333 -0.713184 -11.7658 0.0231185 -1.37048e-009 8.75213e-006 -1.47689e-008 1.67525 8.28787 0.417354 -3.53136 -0.386919 1.17283 36.8514 1.7275 0.00987148 40.5634 -11.1066 1.62546 5.07902 29.0437 14.9761 -9.34842 9.49255 0.0545507 -44.4399 3.55096 -3.4443 -27.1086 -10.9647 6.45225 -1.74212 30.5205 -18.9362 5.82328 9.61819 -0.917488 1.0622 -3.90248 -3.15059 -3.56272 4.57402 -5.54232 -1.16985 11.0576 -7.09546 6.35496 -14.0161 0.144769 0.0462048 0.000530889 0.662642 
193.987 102.877 4.78143 -5.25235 -0.548898 -92.6668 -2.65039 3.91615 2.4937 -1.05026 7.94341 22.4855 -0.648078 -11.7798 0.0231197 -1.37048e-009 8.75213e-006 -1.47689e-008 1.65859 8.39441 0.484506 -3.57099 -0.567683 1.24513 36.8804 1.71914 -0.0121765 40.4835 -11.7364 1.40579 5.21246 29.6087 14.6141 -9.13962 9.50176 0.0576005 -44.4982 3.55092 -3.43551 -27.0017 -11.2545 6.56693 -1.99214 30.9716 -18.5069 5.82328 9.61819 -0.917488 0.515814 -5.52163 -5.48982 -3.55596 4.53203 -5.4933 -1.22568 11.0654 -7.10895 6.34829 -14.0572 0.146265 0.0462048 0.000530889 0.662642 
193.86 102.879 4.77959 -5.17206 -0.557806 -92.7379 -2.67391 3.93561 2.47927 -1.04029 7.8898 22.5933 -0.612012 -11.7898 0.0231206 -1.37048e-009 8.75213e-006 -1.47689e-008 1.46962 8.13612 0.587098 -3.30609 -0.210631 1.30092 36.6824 1.70955 -0.0178723 40.5785 -12.8087 1.47978 5.42111 30.5449 14.026 -9.02973 9.5043 0.127563 -44.7346 3.57434 -3.44587 -26.867 -11.614 6.4715 -2.30062 31.3452 -18.037 5.82328 9.61819 -0.917488 0.0675216 -6.13739 -6.88977 -3.5563 4.51356 -5.47102 -1.2526 11.0635 -7.0645 6.35623 -14.0731 0.147513 0.0462048 0.000530889 0.662642 
193.736 102.882 4.77685 -5.10861 -0.553883 -92.7983 -2.68953 3.93287 2.46321 -1.01843 7.91223 22.698 -0.632765 -11.8193 0.0231231 -1.37048e-009 8.75213e-006 -1.47689e-008 1.36329 7.80676 0.58242 -3.18639 0.228243 1.27745 36.7311 1.71292 -0.0141122 40.5088 -13.8295 1.71841 5.72271 31.4963 13.3241 -9.13113 9.50398 0.183318 -44.6756 3.57406 -3.45412 -27.0103 -12.1684 6.40943 -2.48665 31.727 -17.6938 5.82328 9.61819 -0.917488 0.244486 -6.02331 -5.9011 -3.56888 4.53283 -5.49642 -1.23044 11.021 -6.99667 6.33327 -14.0639 0.148542 0.0462048 0.000530889 0.662642 
193.63 102.885 4.77438 -5.02359 -0.541935 -92.8443 -2.68797 3.87215 2.45201 -1.0095 7.98304 22.7501 -0.680671 -11.8541 0.023126 -1.37048e-009 8.75213e-006 -1.47689e-008 1.37933 7.61168 0.515946 -3.25766 0.447727 1.22644 36.9715 1.72445 -0.00755019 40.2949 -14.3977 1.86593 5.98518 31.9725 12.8262 -9.32468 9.50235 0.104298 -44.4205 3.55479 -3.45467 -27.3731 -12.4422 6.41975 -2.48845 31.8099 -17.6519 5.82328 9.61819 -0.917488 0.544623 -5.70709 -3.94779 -3.57652 4.52813 -5.52414 -1.19264 10.9519 -6.95405 6.28054 -14.0473 0.149387 0.0462048 0.000530889 0.662642 
193.536 102.887 4.77337 -4.92096 -0.524869 -92.9094 -2.66627 3.79589 2.46669 -1.03137 8.02837 22.7822 -0.704538 -11.8672 0.0231271 -1.37048e-009 8.75213e-006 -1.47689e-008 1.3748 7.54964 0.520601 -3.20956 0.509521 1.22291 36.9411 1.72913 0.00552197 40.2733 -14.5937 1.79753 6.0409 31.9556 12.7357 -9.48217 9.50082 -0.0850464 -44.4352 3.56314 -3.46876 -27.6264 -12.0184 6.40551 -2.3529 31.3572 -17.9498 5.82328 9.61819 -0.917488 0.346298 -6.08559 -3.84954 -3.56485 4.49743 -5.51478 -1.18137 10.8744 -6.93282 6.29275 -14.0149 0.150071 0.0462048 0.000530889 0.662642 
193.445 102.887 4.77518 -4.84881 -0.508727 -92.9976 -2.64694 3.75735 2.49483 -1.06161 8.05246 22.8581 -0.698112 -11.8739 0.0231277 -1.37048e-009 8.75213e-006 -1.47689e-008 1.41824 7.62513 0.561968 -3.1614 0.417794 1.25792 36.721 1.72798 0.0209032 40.4247 -14.7389 1.61794 5.9562 31.9005 12.8341 -9.58223 9.50068 -0.210323 -44.6175 3.58847 -3.49084 -27.7305 -11.2869 6.40137 -2.11665 30.7812 -18.4182 5.82328 9.61819 -0.917488 -0.146321 -7.0239 -5.80225 -3.55075 4.49753 -5.4975 -1.19189 10.8003 -6.88704 6.35937 -13.9754 0.150625 0.0462048 0.000530889 0.662642 
